<svg xmlns="http://www.w3.org/2000/svg" version="1.1" xmlns:xlink="http://www.w3.org/1999/xlink" xmlns:svgjs="http://svgjs.dev/svgjs" width="1500" height="1561" viewBox="0 0 1500 1561"><g transform="matrix(1,0,0,1,-1.7341989000734657,-0.1938918471780653)"><svg viewBox="0 0 146 152" data-background-color="#ffffff" preserveAspectRatio="xMidYMid meet" height="1561" width="1500" xmlns="http://www.w3.org/2000/svg" xmlns:xlink="http://www.w3.org/1999/xlink"><g id="tight-bounds" transform="matrix(1,0,0,1,0.1687953596071452,0.018879923620161776)"><svg viewBox="0 0 145.66240928078574 151.96224015275968" height="151.96224015275968" width="145.66240928078574"><g><svg viewBox="0 0 145.66240928078574 151.96224015275968" height="151.96224015275968" width="145.66240928078574"><g><svg viewBox="0 0 145.66240928078574 151.96224015275968" height="151.96224015275968" width="145.66240928078574"><g><path d="M0 151.962v-151.962h145.662v151.962z" fill="#8eb4e5" stroke="transparent" stroke-width="0" rx="0%" data-fill-palette-color="tertiary"></path><path d="M3.283 148.679v-145.396h139.096v145.396z" fill="#ffffff" stroke="transparent" stroke-width="0" rx="0%" data-fill-palette-color="quaternary"></path><path d="M9.85 142.112v-132.262h125.963v132.262z" fill="#8eb4e5" stroke="transparent" stroke-width="0" data-fill-palette-color="tertiary"></path></g><g transform="matrix(1,0,0,1,19.69974,19.69974)" id="textblocktransform"><svg viewBox="0 0 106.26292928078574 112.56276015275968" height="112.56276015275968" width="106.26292928078574" id="textblock"><g><svg viewBox="0 0 106.26292928078574 100.57561757280003" height="100.57561757280003" width="106.26292928078574"><g transform="matrix(1,0,0,1,0,0)"><svg width="106.26292928078574" viewBox="0.54 -32.62 34.67 32.82" height="100.57561757280003" data-palette-color="#ffffff"><path d="M20.65-1.61L20.65-1.61Q21.73-1.61 22.85-2.08 23.97-2.54 23.97-3.32L23.97-3.32Q23.97-3.42 22.75-6.59L22.75-6.59 21.29-10.16Q21.09-10.35 20.95-10.35L20.95-10.35Q20.02-10.4 16.26-10.4L16.26-10.4Q13.04-10.4 11.33-10.35L11.33-10.35Q11.13-10.35 10.99-10.11L10.99-10.11Q10.99-10.11 9.38-6.4L9.38-6.4Q8.4-4.2 8.4-3.42 8.4-2.64 9.28-2.2 10.16-1.76 10.82-1.68 11.47-1.61 11.96-1.61L11.96-1.61Q12.11-1.56 12.11-0.83 12.11-0.1 12.01 0.2L12.01 0.2Q11.38 0.15 9.45-0.02 7.52-0.2 6.3-0.2 5.08-0.2 3.37-0.02 1.66 0.15 0.73 0.2L0.73 0.2Q0.54 0 0.54-0.54L0.54-0.54Q0.54-1.56 0.63-1.56L0.63-1.56Q1.22-1.56 2.59-2.08 3.96-2.59 4.3-3.13L4.3-3.13Q4.69-3.71 5.1-4.57 5.52-5.42 5.76-5.96L5.76-5.96 6.01-6.54 16.8-31.35Q17.33-32.62 18.6-32.62L18.6-32.62Q19.34-32.62 19.78-31.98L19.78-31.98 29.79-7.23Q30.71-4.98 31.4-3.22L31.4-3.22Q31.69-2.44 33.01-2.03 34.33-1.61 35.01-1.61L35.01-1.61Q35.21-1.61 35.21-0.78 35.21 0.05 35.11 0.2L35.11 0.2Q34.91 0.2 32.1 0 29.3-0.2 28.03-0.2L28.03-0.2Q27.69-0.2 20.65 0.2L20.65 0.2Q20.46 0 20.46-0.81 20.46-1.61 20.65-1.61ZM12.65-13.48L12.65-13.48Q14.11-13.33 16.26-13.33L16.26-13.33Q18.21-13.33 19.73-13.43L19.73-13.43 19.87-13.67 16.36-22.41 12.55-13.67Q12.55-13.48 12.65-13.48Z" opacity="1" transform="matrix(1,0,0,1,0,0)" fill="#ffffff" class="wordmark-text-0" data-fill-palette-color="quaternary" id="text-0"></path></svg></g></svg></g><g transform="matrix(1,0,0,1,0,107.14219757280003)"><svg viewBox="0 0 106.26292928078574 5.420562579959653" height="5.420562579959653" width="106.26292928078574"><g transform="matrix(1,0,0,1,0,0)"><svg width="106.26292928078574" viewBox="0.6 -36.9 907.56 46.3" height="5.420562579959653" data-palette-color="#ffffff"><path d="M20.45 0L11.15 0 11.15-27.8 0.6-27.8 0.6-35.25 31-35.25 31-27.8 20.45-27.8 20.45 0ZM46-24.6L54.9-24.6 54.9 0 46.25 0 46.25-3.3Q45.1-1.5 43.32-0.55 41.55 0.4 39.25 0.4L39.25 0.4Q34.5 0.4 32.2-2.23 29.9-4.85 29.9-10.2L29.9-10.2 29.9-24.6 38.8-24.6 38.8-10Q38.8-6.4 41.9-6.4L41.9-6.4Q43.7-6.4 44.85-7.7 46-9 46-11.1L46-11.1 46-24.6ZM78.55-25.3L79.05-17.95 74.2-17.45Q71.3-17.15 70.15-15.9 69-14.65 69-12.35L69-12.35 69 0 60.1 0 60.1-24.6 68.55-24.6 68.55-20.35Q69.4-22.6 71.34-23.78 73.3-24.95 76.09-25.1L76.09-25.1 78.55-25.3ZM97.59-25.2Q101.99-25.2 104.14-22.58 106.29-19.95 106.29-14.6L106.29-14.6 106.29 0 97.39 0 97.39-14.2Q97.39-16.4 96.62-17.4 95.84-18.4 94.29-18.4L94.29-18.4Q92.29-18.4 91.12-17.13 89.94-15.85 89.94-13.7L89.94-13.7 89.94 0 81.04 0 81.04-24.6 89.69-24.6 89.69-21.3Q90.99-23.2 93.04-24.2 95.09-25.2 97.59-25.2L97.59-25.2ZM120.19 0L111.29 0 111.29-24.6 120.19-24.6 120.19 0ZM111.09-28.85L111.09-36.9 120.39-36.9 120.39-28.85 111.09-28.85ZM141.89-25.2Q146.29-25.2 148.44-22.58 150.59-19.95 150.59-14.6L150.59-14.6 150.59 0 141.69 0 141.69-14.2Q141.69-16.4 140.91-17.4 140.14-18.4 138.59-18.4L138.59-18.4Q136.59-18.4 135.41-17.13 134.24-15.85 134.24-13.7L134.24-13.7 134.24 0 125.34 0 125.34-24.6 133.99-24.6 133.99-21.3Q135.29-23.2 137.34-24.2 139.39-25.2 141.89-25.2L141.89-25.2ZM173.09-24.6L181.84-24.6 181.84-3Q181.84 3.1 178.21 6.25 174.59 9.4 167.49 9.4L167.49 9.4Q164.14 9.4 160.99 8.63 157.84 7.85 155.54 6.45L155.54 6.45 157.79 0.4Q160.09 1.6 162.56 2.25 165.04 2.9 167.24 2.9L167.24 2.9Q170.19 2.9 171.61 1.63 173.04 0.35 173.04-2.4L173.04-2.4 173.04-4.3Q171.94-2.65 169.89-1.68 167.84-0.7 165.44-0.7L165.44-0.7Q162.24-0.7 159.74-2.2 157.24-3.7 155.84-6.48 154.44-9.25 154.44-12.9L154.44-12.9Q154.44-16.55 155.84-19.35 157.24-22.15 159.74-23.68 162.24-25.2 165.44-25.2L165.44-25.2Q167.89-25.2 169.94-24.2 171.99-23.2 173.09-21.45L173.09-21.45 173.09-24.6ZM168.14-7.35Q170.49-7.35 171.79-8.83 173.09-10.3 173.09-12.9L173.09-12.9Q173.09-15.55 171.79-17.05 170.49-18.55 168.14-18.55L168.14-18.55Q165.84-18.55 164.54-17.07 163.24-15.6 163.24-12.9L163.24-12.9Q163.24-10.3 164.56-8.83 165.89-7.35 168.14-7.35L168.14-7.35ZM217.38-11.45L227.68-35.25 236.98-35.25 220.93 0 213.63 0 197.58-35.25 207.13-35.25 217.38-11.45ZM247.38 0L238.48 0 238.48-24.6 247.38-24.6 247.38 0ZM238.28-28.85L238.28-36.9 247.58-36.9 247.58-28.85 238.28-28.85ZM262.43 0.4Q258.88 0.4 255.88-0.35 252.88-1.1 250.83-2.55L250.83-2.55 253.08-8.6Q255.08-7.3 257.63-6.53 260.18-5.75 262.53-5.75L262.53-5.75Q263.98-5.75 264.78-6.18 265.58-6.6 265.58-7.35L265.58-7.35Q265.58-8 265-8.35 264.43-8.7 262.68-9.1L262.68-9.1 258.73-10Q254.98-10.85 253.33-12.5 251.68-14.15 251.68-17.2L251.68-17.2Q251.68-19.55 253.08-21.38 254.48-23.2 257-24.2 259.53-25.2 262.73-25.2L262.73-25.2Q265.38-25.2 268-24.43 270.63-23.65 272.78-22.25L272.78-22.25 270.48-16.45Q268.48-17.7 266.45-18.38 264.43-19.05 262.63-19.05L262.63-19.05Q261.18-19.05 260.38-18.6 259.58-18.15 259.58-17.3L259.58-17.3Q259.58-16.8 260.08-16.48 260.58-16.15 261.83-15.85L261.83-15.85 265.98-14.9Q269.88-14.05 271.63-12.28 273.38-10.5 273.38-7.45L273.38-7.45Q273.38-3.8 270.45-1.7 267.53 0.4 262.43 0.4L262.43 0.4ZM285.92 0L277.02 0 277.02-24.6 285.92-24.6 285.92 0ZM276.82-28.85L276.82-36.9 286.12-36.9 286.12-28.85 276.82-28.85ZM303.47 0.4Q299.42 0.4 296.35-1.18 293.27-2.75 291.6-5.65 289.92-8.55 289.92-12.45L289.92-12.45Q289.92-16.35 291.6-19.23 293.27-22.1 296.32-23.65 299.37-25.2 303.47-25.2L303.47-25.2Q307.57-25.2 310.62-23.65 313.67-22.1 315.35-19.23 317.02-16.35 317.02-12.45L317.02-12.45Q317.02-8.55 315.35-5.65 313.67-2.75 310.62-1.18 307.57 0.4 303.47 0.4L303.47 0.4ZM303.47-6.25Q308.22-6.25 308.22-12.45L308.22-12.45Q308.22-18.65 303.47-18.65L303.47-18.65Q298.72-18.65 298.72-12.45L298.72-12.45Q298.72-6.25 303.47-6.25L303.47-6.25ZM337.62-25.2Q342.02-25.2 344.17-22.58 346.32-19.95 346.32-14.6L346.32-14.6 346.32 0 337.42 0 337.42-14.2Q337.42-16.4 336.64-17.4 335.87-18.4 334.32-18.4L334.32-18.4Q332.32-18.4 331.14-17.13 329.97-15.85 329.97-13.7L329.97-13.7 329.97 0 321.07 0 321.07-24.6 329.72-24.6 329.72-21.3Q331.02-23.2 333.07-24.2 335.12-25.2 337.62-25.2L337.62-25.2ZM375.41 0L366.21 0 366.21-35.25 375.41-35.25 375.41 0ZM397.76-25.2Q402.16-25.2 404.31-22.58 406.46-19.95 406.46-14.6L406.46-14.6 406.46 0 397.56 0 397.56-14.2Q397.56-16.4 396.79-17.4 396.01-18.4 394.46-18.4L394.46-18.4Q392.46-18.4 391.29-17.13 390.11-15.85 390.11-13.7L390.11-13.7 390.11 0 381.21 0 381.21-24.6 389.86-24.6 389.86-21.3Q391.16-23.2 393.21-24.2 395.26-25.2 397.76-25.2L397.76-25.2ZM426.16-6Q427.26-6 428.61-6.15L428.61-6.15 428.16 0.2Q426.56 0.4 425.06 0.4L425.06 0.4Q419.06 0.4 416.33-2.13 413.61-4.65 413.61-9.95L413.61-9.95 413.61-18.05 409.01-18.05 409.01-24.6 413.61-24.6 413.61-31.75 422.51-31.75 422.51-24.6 428.41-24.6 428.41-18.05 422.51-18.05 422.51-9.9Q422.51-6 426.16-6L426.16-6ZM444.11 0.4Q440.06 0.4 436.98-1.18 433.91-2.75 432.23-5.65 430.56-8.55 430.56-12.45L430.56-12.45Q430.56-16.35 432.23-19.23 433.91-22.1 436.96-23.65 440.01-25.2 444.11-25.2L444.11-25.2Q448.21-25.2 451.26-23.65 454.31-22.1 455.98-19.23 457.66-16.35 457.66-12.45L457.66-12.45Q457.66-8.55 455.98-5.65 454.31-2.75 451.26-1.18 448.21 0.4 444.11 0.4L444.11 0.4ZM444.11-6.25Q448.86-6.25 448.86-12.45L448.86-12.45Q448.86-18.65 444.11-18.65L444.11-18.65Q439.36-18.65 439.36-12.45L439.36-12.45Q439.36-6.25 444.11-6.25L444.11-6.25ZM502.7-10L508.3 0 498.2 0 492.1-11.25Q490.95-13.2 488.45-13.2L488.45-13.2 485.65-13.2 485.65 0 476.6 0 476.6-35.25 493.4-35.25Q499.8-35.25 503.03-32.48 506.25-29.7 506.25-24.45L506.25-24.45Q506.25-20.45 504.05-17.68 501.85-14.9 497.85-13.95L497.85-13.95Q500.9-13.3 502.7-10L502.7-10ZM491.95-20.1Q495-20.1 496.33-21.05 497.65-22 497.65-24.15L497.65-24.15Q497.65-26.35 496.33-27.33 495-28.3 491.95-28.3L491.95-28.3 485.55-28.3 485.55-20.1 491.95-20.1ZM534.05-12.6L534.05-10.6 518.85-10.6Q519.25-8.2 520.6-7.15 521.95-6.1 524.45-6.1L524.45-6.1Q526.25-6.1 528.1-6.7 529.95-7.3 531.4-8.35L531.4-8.35 533.65-2.5Q531.8-1.15 529.2-0.38 526.6 0.4 524 0.4L524 0.4Q519.75 0.4 516.65-1.15 513.55-2.7 511.87-5.6 510.2-8.5 510.2-12.4L510.2-12.4Q510.2-16.1 511.77-19.03 513.35-21.95 516.17-23.58 519-25.2 522.55-25.2L522.55-25.2Q527.85-25.2 530.95-21.83 534.05-18.45 534.05-12.6L534.05-12.6ZM522.8-19.2Q519.25-19.2 518.75-14.8L518.75-14.8 526.6-14.8Q526.3-19.2 522.8-19.2L522.8-19.2ZM549.35-25.2Q555.15-25.2 557.92-22.53 560.7-19.85 560.7-14.2L560.7-14.2 560.7 0 552.35 0 552.35-3.45Q551.65-1.65 550-0.63 548.35 0.4 546.05 0.4L546.05 0.4Q543.5 0.4 541.45-0.63 539.4-1.65 538.22-3.48 537.05-5.3 537.05-7.6L537.05-7.6Q537.05-10.25 538.42-11.83 539.8-13.4 542.8-14.1 545.8-14.8 550.9-14.8L550.9-14.8 552.25-14.8 552.25-15.4Q552.25-17.25 551.4-17.98 550.55-18.7 548.4-18.7L548.4-18.7Q546.7-18.7 544.47-18.03 542.25-17.35 540.3-16.3L540.3-16.3 538.05-22.15Q540.2-23.45 543.42-24.33 546.65-25.2 549.35-25.2L549.35-25.2ZM548.15-5.55Q549.95-5.55 551.1-6.83 552.25-8.1 552.25-10.1L552.25-10.1 552.25-10.7 551.45-10.7Q548.25-10.7 546.9-10.13 545.55-9.55 545.55-8.2L545.55-8.2Q545.55-7.05 546.27-6.3 547-5.55 548.15-5.55L548.15-5.55ZM574.59 0L565.69 0 565.69-35.25 574.59-35.25 574.59 0ZM588.64 0L579.74 0 579.74-24.6 588.64-24.6 588.64 0ZM579.54-28.85L579.54-36.9 588.84-36.9 588.84-28.85 579.54-28.85ZM608.49-6Q609.59-6 610.94-6.15L610.94-6.15 610.49 0.2Q608.89 0.4 607.39 0.4L607.39 0.4Q601.39 0.4 598.66-2.13 595.94-4.65 595.94-9.95L595.94-9.95 595.94-18.05 591.34-18.05 591.34-24.6 595.94-24.6 595.94-31.75 604.84-31.75 604.84-24.6 610.74-24.6 610.74-18.05 604.84-18.05 604.84-9.9Q604.84-6 608.49-6L608.49-6ZM625.68-10.7L631.38-24.55 640.08-24.55 625.08 9 616.08 9 621.03-1.7 610.98-24.55 620.28-24.55 625.68-10.7ZM692.38-12.5L700.03-35.25 708.73-35.25 696.13 0 688.83 0 681.38-21.15 673.83 0 666.48 0 653.93-35.25 663.28-35.25 670.58-12.9 678.48-35.25 684.83-35.25 692.38-12.5ZM720.88 0L711.98 0 711.98-24.6 720.88-24.6 720.88 0ZM711.78-28.85L711.78-36.9 721.08-36.9 721.08-28.85 711.78-28.85ZM740.72-6Q741.82-6 743.17-6.15L743.17-6.15 742.72 0.2Q741.12 0.4 739.62 0.4L739.62 0.4Q733.62 0.4 730.9-2.13 728.17-4.65 728.17-9.95L728.17-9.95 728.17-18.05 723.57-18.05 723.57-24.6 728.17-24.6 728.17-31.75 737.07-31.75 737.07-24.6 742.97-24.6 742.97-18.05 737.07-18.05 737.07-9.9Q737.07-6 740.72-6L740.72-6ZM762.82-25.2Q767.22-25.2 769.37-22.58 771.52-19.95 771.52-14.6L771.52-14.6 771.52 0 762.62 0 762.62-14.2Q762.62-16.4 761.85-17.4 761.07-18.4 759.52-18.4L759.52-18.4Q757.52-18.4 756.35-17.13 755.17-15.85 755.17-13.7L755.17-13.7 755.17 0 746.27 0 746.27-35.25 755.17-35.25 755.17-21.65Q756.52-23.4 758.47-24.3 760.42-25.2 762.82-25.2L762.82-25.2ZM808.52 0.45Q803.02 0.45 798.94-1.8 794.87-4.05 792.69-8.15 790.52-12.25 790.52-17.65L790.52-17.65Q790.52-23.05 792.69-27.13 794.87-31.2 798.94-33.45 803.02-35.7 808.52-35.7L808.52-35.7Q811.97-35.7 815.19-34.65 818.42-33.6 820.47-31.85L820.47-31.85 817.62-25.35Q813.27-28.4 808.72-28.4L808.72-28.4Q804.42-28.4 802.14-25.7 799.87-23 799.87-17.65L799.87-17.65Q799.87-12.3 802.14-9.58 804.42-6.85 808.72-6.85L808.72-6.85Q813.27-6.85 817.62-9.9L817.62-9.9 820.47-3.4Q818.42-1.65 815.19-0.6 811.97 0.45 808.52 0.45L808.52 0.45ZM836.61 0.4Q832.56 0.4 829.49-1.18 826.41-2.75 824.74-5.65 823.06-8.55 823.06-12.45L823.06-12.45Q823.06-16.35 824.74-19.23 826.41-22.1 829.46-23.65 832.51-25.2 836.61-25.2L836.61-25.2Q840.71-25.2 843.76-23.65 846.81-22.1 848.49-19.23 850.16-16.35 850.16-12.45L850.16-12.45Q850.16-8.55 848.49-5.65 846.81-2.75 843.76-1.18 840.71 0.4 836.61 0.4L836.61 0.4ZM836.61-6.25Q841.36-6.25 841.36-12.45L841.36-12.45Q841.36-18.65 836.61-18.65L836.61-18.65Q831.86-18.65 831.86-12.45L831.86-12.45Q831.86-6.25 836.61-6.25L836.61-6.25ZM871.36-35.25L880.26-35.25 880.26 0 871.51 0 871.51-3.35Q870.46-1.6 868.44-0.6 866.41 0.4 863.96 0.4L863.96 0.4Q860.81 0.4 858.34-1.23 855.86-2.85 854.46-5.8 853.06-8.75 853.06-12.55L853.06-12.55Q853.06-16.35 854.44-19.23 855.81-22.1 858.29-23.65 860.76-25.2 863.96-25.2L863.96-25.2Q866.31-25.2 868.29-24.25 870.26-23.3 871.36-21.7L871.36-21.7 871.36-35.25ZM866.66-6.25Q869.01-6.25 870.26-7.85 871.51-9.45 871.51-12.45L871.51-12.45Q871.51-15.4 870.26-16.98 869.01-18.55 866.66-18.55L866.66-18.55Q864.36-18.55 863.11-17 861.86-15.45 861.86-12.55L861.86-12.55Q861.86-9.55 863.14-7.9 864.41-6.25 866.66-6.25L866.66-6.25ZM908.16-12.6L908.16-10.6 892.96-10.6Q893.36-8.2 894.71-7.15 896.06-6.1 898.56-6.1L898.56-6.1Q900.36-6.1 902.21-6.7 904.06-7.3 905.51-8.35L905.51-8.35 907.76-2.5Q905.91-1.15 903.31-0.38 900.71 0.4 898.11 0.4L898.11 0.4Q893.86 0.4 890.76-1.15 887.66-2.7 885.98-5.6 884.31-8.5 884.31-12.4L884.31-12.4Q884.31-16.1 885.88-19.03 887.46-21.95 890.28-23.58 893.11-25.2 896.66-25.2L896.66-25.2Q901.96-25.2 905.06-21.83 908.16-18.45 908.16-12.6L908.16-12.6ZM896.91-19.2Q893.36-19.2 892.86-14.8L892.86-14.8 900.71-14.8Q900.41-19.2 896.91-19.2L896.91-19.2Z" opacity="1" transform="matrix(1,0,0,1,0,0)" fill="#ffffff" class="slogan-text-1" data-fill-palette-color="quaternary" id="text-1"></path></svg></g></svg></g></svg></g></svg></g><g></g></svg></g><defs></defs></svg><rect width="145.66240928078574" height="151.96224015275968" fill="none" stroke="none" visibility="hidden"></rect></g></svg></g></svg>